<?xml version="1.0" encoding="utf-8"?>
<svg xmlns="http://www.w3.org/2000/svg" xmlns:xlink="http://www.w3.org/1999/xlink" width="734" height="548"><g><rect x="54" y="457" width="218" height="33" style="stroke:none; fill:rgb(0,0,255)"/><text x="163" y="478" text-anchor="middle" style="font-size:11pt; fill:rgb(255,255,255); font-family:MS-Gothic; font-weight:bold; ">リンクのプロパティ設定１</text></g><g><rect x="20" y="26" width="141" height="33" style="stroke:none; fill:rgb(255,255,255)"/><text x="90" y="47" text-anchor="middle" style="font-size:11pt; fill:rgb(0,0,0); font-family:MS-Gothic; font-weight:bold; ">リンクいろいろ</text></g><g><rect x="187" y="89" width="91" height="33" style="stroke:rgb(0,0,0); stroke-width:1; fill:rgb(255,255,255)"/><text x="232" y="109" text-anchor="middle" style="font-size:9pt; fill:rgb(0,0,0); font-family:MS-Gothic; ">ノード１</text></g><g><rect x="488" y="91" width="106" height="33" style="stroke:rgb(0,0,0); stroke-width:1; fill:rgb(255,255,255)"/><text x="541" y="111" text-anchor="middle" style="font-size:9pt; fill:rgb(0,0,0); font-family:MS-Gothic; ">ノード２</text></g><g><rect x="45" y="341" width="124" height="33" style="stroke:rgb(0,0,0); stroke-width:1; fill:rgb(255,255,255)"/><text x="107" y="361" text-anchor="middle" style="font-size:9pt; fill:rgb(0,0,0); font-family:MS-Gothic; ">ノード３</text></g><g><rect x="191" y="340" width="124" height="33" style="stroke:rgb(0,0,0); stroke-width:1; fill:rgb(255,255,255)"/><text x="253" y="360" text-anchor="middle" style="font-size:9pt; fill:rgb(0,0,0); font-family:MS-Gothic; ">ノード４</text></g><g><rect x="359" y="338" width="124" height="33" style="stroke:rgb(0,0,0); stroke-width:1; fill:rgb(255,255,255)"/><text x="421" y="358" text-anchor="middle" style="font-size:9pt; fill:rgb(0,0,0); font-family:MS-Gothic; ">ノード５</text></g><g><rect x="494" y="210" width="124" height="33" style="stroke:rgb(0,0,0); stroke-width:1; fill:rgb(255,255,255)"/><text x="556" y="230" text-anchor="middle" style="font-size:9pt; fill:rgb(0,0,0); font-family:MS-Gothic; ">ノード６</text></g><g><ellipse cx="537" cy="428" rx="44" ry="16" style="stroke:rgb(0,0,0); stroke-width:1; fill:rgb(255,255,255)"/><text x="537" y="432" text-anchor="middle" style="font-size:9pt; fill:rgb(0,0,0); font-family:MS-Gothic; ">ノード７</text></g><g><rect x="30" y="91" width="89" height="33" style="stroke:rgb(0,0,0); stroke-width:1; fill:none"/><text x="74" y="111" text-anchor="middle" style="font-size:9pt; fill:rgb(0,0,0); font-family:MS-Gothic; ">ノード０</text></g><g><rect x="56" y="500" width="217" height="38" style="stroke:none; fill:rgb(0,0,255)"/><text x="164" y="524" text-anchor="middle" style="font-size:11pt; fill:rgb(255,255,255); font-family:MS-Gothic; font-weight:bold; ">リンクのプロパティ設定２</text></g><g><line x1="276" y1="106" x2="488" y2="106" style="stroke:rgb(0,0,0); stroke-width:1;"/><text x="330" y="112" style="font-size:9pt; fill:rgb(0,0,0); font-family:MS-Gothic; ">まっすぐなリンク</text><path d="M 488 106 L 476 101 L 476 111 z" style="fill:rgb(0,0,0); stroke:rgb(0,0,0); stroke-width:1;"/></g><g><path d="M 261 121 C 389 190 389 190 512 123" stroke="rgb(0,0,0)" fill="none" stroke-width="1"/><text x="344" y="196" style="font-size:9pt; fill:rgb(0,0,0); font-family:MS-Gothic; ">曲がったリンク</text><path d="M 512 123 L 500 124 L 504 133 z" style="fill:rgb(0,0,0); stroke:rgb(0,0,0); stroke-width:1;"/></g><g><line x1="224" y1="121" x2="115" y2="341" style="stroke:rgb(0,0,0); stroke-width:1;"/><text x="143" y="237" style="font-size:9pt; fill:rgb(0,0,0); font-family:MS-Gothic; ">矢印なし</text></g><g><line x1="234" y1="121" x2="251" y2="340" style="stroke:rgb(0,0,0); stroke-width:1;"/><text x="210" y="236" style="font-size:9pt; fill:rgb(0,0,0); font-family:MS-Gothic; ">一方向矢印</text><path d="M 251 340 L 255 328 L 246 329 z" style="fill:rgb(0,0,0); stroke:rgb(0,0,0); stroke-width:1;"/></g><g><line x1="244" y1="120" x2="409" y2="339" style="stroke:rgb(0,0,0); stroke-width:1;"/><text x="294" y="235" style="font-size:9pt; fill:rgb(0,0,0); font-family:MS-Gothic; ">双方向矢印</text><path d="M 409 339 L 406 327 L 398 333 z" style="fill:rgb(0,0,0); stroke:rgb(0,0,0); stroke-width:1;"/><path d="M 244 120 L 247 132 L 255 126 z" style="fill:rgb(0,0,0); stroke:rgb(0,0,0); stroke-width:1;"/></g><g><line x1="438" y1="338" x2="539" y2="242" style="stroke:rgb(128,128,255); stroke-width:1; stroke-dasharray:3,3;"/><text x="475" y="296" style="font-size:9pt; fill:rgb(128,128,255); font-family:MS-Gothic; ">点線</text><path d="M 539 242 L 527 246 L 534 253 z" style="fill:rgb(128,128,255); stroke:rgb(128,128,255); stroke-width:1;"/></g><g><path d="M 425 370 C 435 417 435 417 493 423" stroke="rgb(255,0,128)" fill="none" stroke-width="4"/><text x="403" y="423" style="font-size:9pt; fill:rgb(255,0,128); font-family:MS-Gothic; ">太いリンク</text><path d="M 493 423 L 476 415 L 475 428 z" style="fill:rgb(255,0,128); stroke:rgb(255,0,128); stroke-width:4;"/></g><g><path d="M 618 226 C 660 178 660 178 556 210" stroke="rgb(0,128,128)" fill="none" stroke-width="1"/><text x="602" y="184" style="font-size:9pt; fill:rgb(0,128,128); font-family:MS-Gothic; ">自分自身へのリンク</text><path d="M 556 210 L 568 211 L 565 202 z" style="fill:rgb(0,128,128); stroke:rgb(0,128,128); stroke-width:1;"/></g><g><path d="M 114 123 C 152 138 152 138 193 121" stroke="rgb(0,0,0)" fill="none" stroke-width="1"/></g><g><line x1="117" y1="106" x2="187" y2="106" style="stroke:rgb(0,0,0); stroke-width:1;"/></g><g><line x1="480" y1="353" x2="614" y2="353" style="stroke:rgb(0,0,0); stroke-width:1;"/><path d="M 614 353 L 602 348 L 602 358 z" style="fill:rgb(0,0,0); stroke:rgb(0,0,0); stroke-width:1;"/></g></svg>
